.
..............................Site Info...........................

 -   http://www.scenetime.com  *_*   


Scenetime .Always on time . friendly online private torrent community ..

     We care to share . Join us on  http://www.scenetime.com 

    Be the first to get new release at  http://www.scenetime.com

        Seed back for speed


...................................NFO:.................................................[img]http://img9.imageshack.us/img9/3527/1asylumblackoutposterhd.jpg[/img]

[img]http://img827.imageshack.us/img827/5300/infozw.png[/img]
Format                           : Matroska
Format version                   : Version 2
File size                        : 500 MiB
Duration                         : 1h 25mn
Overall bit rate                 : 821 Kbps

Video
ID                               : 1
Format                           : AVC
Format/Info                      : Advanced Video Codec
Format profile                   : High@L3.0
Format settings, CABAC           : Yes
Format settings, ReFrames        : 8 frames
Codec ID                         : V_MPEG4/ISO/AVC
Duration                         : 1h 25mn
Bit rate                         : 688 Kbps
Width                            : 720 pixels
Height                           : 304 pixels
Display aspect ratio             : 2.35:1
Frame rate mode                  : Variable
Frame rate                       : 23.976 fps
Color space                      : YUV
Chroma subsampling               : 4:2:0
Bit depth                        : 8 bits
Scan type                        : Progressive
Bits/(Pixel*Frame)               : 0.131
Stream size                      : 412 MiB (82%)
Writing library                  : x264 core 112

Audio
ID                               : 2
Format                           : AC-3
Format/Info                      : Audio Coding 3
Mode extension                   : CM (complete main)
Codec ID                         : A_AC3
Duration                         : 1h 25mn
Bit rate mode                    : Constant
Bit rate                         : 128 Kbps
Channel(s)                       : 2 channels
Channel positions                : Front: L R
Sampling rate                    : 48.0 KHz
Bit depth                        : 16 bits
Compression mode                 : Lossy
Stream size                      : 77.9 MiB (16%)

[img]http://img822.imageshack.us/img822/8919/imdba.png[/img] 
http://www.imdb.com/title/tt1027820/

[img]http://img16.imageshack.us/img16/4793/screensy.png[/img]
[img]http://img812.imageshack.us/img812/337/vlcsnap2012050616h42m26.png[/img]
[img]http://img838.imageshack.us/img838/1797/vlcsnap2012050616h38m39.png[/img]
[img]http://img600.imageshack.us/img600/9135/vlcsnap2012050616h36m56.png[/img]
[img]http://img842.imageshack.us/img842/4652/vlcsnap2012050616h31m34.png[/img]
[img]http://img4.imageshack.us/img4/1433/vlcsnap2012050616h35m12.png[/img]

Notes:
We just did a few tweaks before then converting this bad boy down to x264. Feel the wrath of the WiGWAM... ;)

Source: SiC (Thanks!)

Special thanks goes to bustheadz, you know why buddy. :D

[img]http://img526.imageshack.us/img526/7959/wigwam.png[/img]